<svg width="28" height="28" viewBox="0 0 28 28" fill="none" xmlns="http://www.w3.org/2000/svg">
<path d="M17.7948 25.375H19.2506C19.3968 25.375 19.5408 25.3382 19.6692 25.2682C19.7976 25.1982 19.9064 25.0971 19.9857 24.9741C20.0649 24.8512 20.1121 24.7103 20.1229 24.5644C20.1337 24.4186 20.1077 24.2723 20.0474 24.1391L16.5222 16.3598L21.8154 16.2422L23.7459 18.5812C24.1139 19.0438 24.4076 19.25 25.1568 19.25H26.1368C26.292 19.255 26.4461 19.2225 26.586 19.1553C26.7259 19.0881 26.8476 18.9881 26.9407 18.8639C27.0709 18.6884 27.1988 18.3909 27.0742 17.9665L25.9902 14.0837C25.982 14.0547 25.9722 14.0257 25.9613 13.9973C25.9607 13.9946 25.9607 13.9918 25.9613 13.9891C25.9726 13.9606 25.9822 13.9316 25.9902 13.9021L27.0752 9.99469C27.1928 9.57852 27.0643 9.28758 26.9352 9.11641C26.8486 9.00141 26.7361 8.90835 26.607 8.84471C26.4778 8.78108 26.3355 8.74864 26.1915 8.75H25.1568C24.5974 8.75 24.0543 9.00102 23.7349 9.40625L21.8444 11.7059L16.5222 11.6271L20.0463 3.86148C20.1067 3.72829 20.1328 3.58208 20.1221 3.43621C20.1114 3.29035 20.0644 3.14948 19.9852 3.02649C19.9061 2.9035 19.7974 2.80231 19.669 2.73218C19.5407 2.66204 19.3968 2.62519 19.2506 2.625H17.7789C17.5736 2.62913 17.3719 2.67945 17.1887 2.77223C17.0055 2.86501 16.8455 2.99787 16.7207 3.16094L9.88205 11.4734L6.72275 11.3903C6.49142 11.3777 5.85048 11.3734 5.70228 11.3734C2.68025 11.375 0.875563 12.3561 0.875563 14C0.875563 14.5173 1.08228 15.4766 2.46533 16.0869C3.28181 16.4478 4.37119 16.6305 5.70337 16.6305C5.84994 16.6305 6.48923 16.6261 6.72384 16.6135L9.8826 16.5293L16.7382 24.8418C16.8631 25.0041 17.0229 25.1364 17.2058 25.2286C17.3887 25.3209 17.59 25.371 17.7948 25.375Z" fill="black"/>
</svg>
