<svg width="28" height="28" viewBox="0 0 28 28" fill="none" xmlns="http://www.w3.org/2000/svg">
<g id="_Instagram">
<path id="Vector" d="M7.10007 27.901C5.4349 27.8252 4.53033 27.5481 3.92867 27.3135C3.13145 27.0031 2.56308 26.6336 1.96475 26.0361C1.36642 25.4386 0.996107 24.8702 0.687372 24.073C0.4527 23.4713 0.175588 22.5668 0.0998603 20.9016C0.0166434 19.1016 0 18.5615 0 14.0012C0 9.44096 0.0183077 8.90172 0.0990281 7.10007C0.174756 5.4349 0.453532 4.53199 0.68654 3.92867C0.996939 3.13145 1.36725 2.56308 1.96392 1.96392C2.56142 1.36642 3.12979 0.995274 3.92784 0.68654C4.5295 0.451868 5.43407 0.174756 7.09924 0.0990281C8.90005 0.0166434 9.44096 0 13.9996 0C18.5599 0 19.0991 0.0183077 20.9008 0.0990281C22.5659 0.174756 23.4688 0.453532 24.0722 0.68654C24.8694 0.995274 25.4377 1.36642 26.0361 1.96392C26.6344 2.56142 27.0031 3.13062 27.3135 3.92784C27.5481 4.5295 27.8252 5.43407 27.901 7.09924C27.9834 8.90088 28 9.44013 28 14.0004C28 18.559 27.9834 19.0999 27.901 20.9016C27.8252 22.5668 27.5465 23.4713 27.3135 24.073C27.0031 24.8702 26.6336 25.4386 26.0361 26.0361C25.4386 26.6336 24.8694 27.0031 24.0722 27.3135C23.4705 27.5481 22.5659 27.8252 20.9008 27.901C19.1008 27.9834 18.5599 28 13.9996 28C9.44096 28 8.90005 27.9842 7.10007 27.901Z" fill="#A80E0E"/>
<path id="Vector_2" d="M10.8232 13.9007C10.8232 12.2008 12.2009 10.8224 13.9008 10.8224C15.6007 10.8224 16.9791 12.2008 16.9791 13.9007C16.9791 15.6006 15.6007 16.979 13.9008 16.979C12.2009 16.979 10.8232 15.6006 10.8232 13.9007ZM9.15916 13.9007C9.15916 16.5195 11.282 18.6423 13.9008 18.6423C16.5196 18.6423 18.6424 16.5195 18.6424 13.9007C18.6424 11.2819 16.5196 9.15904 13.9008 9.15904C11.282 9.15904 9.15923 11.2817 9.15923 13.9007M17.7221 8.97103C17.722 9.19019 17.7869 9.40446 17.9086 9.58673C18.0303 9.76901 18.2033 9.9111 18.4058 9.99505C18.6082 10.079 18.831 10.101 19.046 10.0584C19.2609 10.0157 19.4584 9.91024 19.6134 9.75533C19.7685 9.60042 19.8741 9.40302 19.9169 9.18809C19.9598 8.97315 19.9379 8.75034 19.8541 8.54783C19.7703 8.34532 19.6284 8.1722 19.4462 8.05037C19.264 7.92853 19.0498 7.86346 18.8307 7.86337H18.8302C18.5364 7.86351 18.2547 7.98024 18.047 8.18792C17.8392 8.39561 17.7224 8.67726 17.7221 8.97103ZM10.1702 21.4171C9.2699 21.3761 8.78056 21.2262 8.45537 21.0995C8.02424 20.9316 7.71663 20.7317 7.39322 20.4088C7.0698 20.0858 6.8696 19.7785 6.7025 19.3474C6.57573 19.0223 6.42577 18.5328 6.38485 17.6325C6.34008 16.6592 6.33114 16.3668 6.33114 13.9008C6.33114 11.4349 6.34082 11.1433 6.38485 10.1691C6.42585 9.26881 6.57692 8.78029 6.7025 8.45429C6.87034 8.02316 7.07024 7.71555 7.39322 7.39213C7.71619 7.06872 8.0235 6.86852 8.45537 6.70142C8.78041 6.57465 9.2699 6.42469 10.1702 6.38376C11.1435 6.339 11.4359 6.33006 13.9008 6.33006C16.3657 6.33006 16.6583 6.33959 17.6325 6.38391C18.5328 6.42491 19.0213 6.57598 19.3473 6.70157C19.7785 6.86867 20.0861 7.06931 20.4095 7.39228C20.7329 7.71526 20.9324 8.02331 21.1002 8.45443C21.227 8.77948 21.3769 9.26896 21.4178 10.1693C21.4626 11.1434 21.4716 11.435 21.4716 13.901C21.4716 16.3669 21.4626 16.6585 21.4178 17.6327C21.3768 18.533 21.2261 19.0223 21.1002 19.3475C20.9324 19.7786 20.7325 20.0862 20.4095 20.4089C20.0865 20.7316 19.7785 20.9318 19.3473 21.0996C19.0223 21.2264 18.5328 21.3764 17.6325 21.4173C16.6592 21.462 16.3668 21.471 13.9008 21.471C11.4348 21.471 11.1432 21.462 10.1702 21.4173M10.0937 4.72243C9.1107 4.76719 8.43897 4.92307 7.85234 5.15133C7.24518 5.38706 6.7305 5.70332 6.21656 6.21644C5.70263 6.72956 5.38719 7.24431 5.15146 7.85222C4.92319 8.43922 4.76732 9.11058 4.72255 10.0936C4.67704 11.0782 4.66663 11.393 4.66663 13.9007C4.66663 16.4084 4.67704 16.7232 4.72255 17.7077C4.76732 18.6908 4.92319 19.3621 5.15146 19.9491C5.38719 20.5563 5.7027 21.072 6.21656 21.5849C6.73043 22.0978 7.24444 22.4136 7.85234 22.65C8.44008 22.8783 9.1107 23.0341 10.0937 23.0789C11.0788 23.1237 11.3931 23.1348 13.9008 23.1348C16.4085 23.1348 16.7233 23.1244 17.7079 23.0789C18.691 23.0341 19.3622 22.8783 19.9492 22.65C20.5564 22.4136 21.0711 22.098 21.585 21.5849C22.099 21.0718 22.4137 20.5563 22.6501 19.9491C22.8784 19.3621 23.035 18.6908 23.079 17.7077C23.1238 16.7224 23.1342 16.4084 23.1342 13.9007C23.1342 11.393 23.1238 11.0782 23.079 10.0936C23.0343 9.1105 22.8784 8.43885 22.6501 7.85222C22.4137 7.24505 22.0981 6.73038 21.585 6.21644C21.0719 5.7025 20.5564 5.38706 19.95 5.15133C19.3622 4.92307 18.6909 4.76645 17.7086 4.72243C16.7239 4.67744 16.4092 4.6665 13.9019 4.6665C11.3946 4.6665 11.0792 4.67692 10.0941 4.72243" fill="white"/>
</g>
</svg>
