<svg width="28" height="28" viewBox="0 0 28 28" fill="none" xmlns="http://www.w3.org/2000/svg">
<path d="M23.625 12.6164C23.0734 12.3743 22.4774 12.2495 21.875 12.25H6.125C5.52262 12.2494 4.92669 12.374 4.375 12.6159C3.59527 12.9568 2.93176 13.5176 2.46558 14.2296C1.9994 14.9416 1.75075 15.774 1.75 16.625V22.75C1.75 22.9821 1.84219 23.2046 2.00628 23.3687C2.17038 23.5328 2.39294 23.625 2.625 23.625C2.85706 23.625 3.07962 23.5328 3.24372 23.3687C3.40781 23.2046 3.5 22.9821 3.5 22.75V22.3125C3.50142 22.1969 3.54797 22.0865 3.62971 22.0047C3.71145 21.923 3.82191 21.8764 3.9375 21.875H24.0625C24.1781 21.8764 24.2885 21.923 24.3703 22.0047C24.452 22.0865 24.4986 22.1969 24.5 22.3125V22.75C24.5 22.9821 24.5922 23.2046 24.7563 23.3687C24.9204 23.5328 25.1429 23.625 25.375 23.625C25.6071 23.625 25.8296 23.5328 25.9937 23.3687C26.1578 23.2046 26.25 22.9821 26.25 22.75V16.625C26.2491 15.7741 26.0004 14.9418 25.5343 14.2299C25.0681 13.518 24.4046 12.9574 23.625 12.6164ZM20.5625 4.375H7.4375C6.62527 4.375 5.84632 4.69766 5.27199 5.27199C4.69766 5.84632 4.375 6.62527 4.375 7.4375V11.375C4.37502 11.4089 4.38293 11.4423 4.39808 11.4726C4.41324 11.503 4.43524 11.5294 4.46234 11.5497C4.48944 11.5701 4.5209 11.5839 4.55424 11.59C4.58758 11.5961 4.62189 11.5944 4.65445 11.585C5.13213 11.4453 5.62732 11.3746 6.125 11.375H6.35633C6.41032 11.3753 6.46253 11.3557 6.50292 11.3199C6.5433 11.284 6.56901 11.2345 6.57508 11.1809C6.6228 10.7533 6.82635 10.3583 7.14683 10.0713C7.46732 9.78432 7.88229 9.62544 8.3125 9.625H11.375C11.8055 9.62503 12.2209 9.78374 12.5417 10.0708C12.8625 10.3578 13.0663 10.753 13.1141 11.1809C13.1201 11.2345 13.1458 11.284 13.1862 11.3199C13.2266 11.3557 13.2788 11.3753 13.3328 11.375H14.6705C14.7245 11.3753 14.7767 11.3557 14.8171 11.3199C14.8574 11.284 14.8831 11.2345 14.8892 11.1809C14.9369 10.7536 15.1402 10.3588 15.4604 10.0719C15.7805 9.78491 16.1951 9.62584 16.625 9.625H19.6875C20.118 9.62503 20.5334 9.78374 20.8542 10.0708C21.175 10.3578 21.3788 10.753 21.4266 11.1809C21.4326 11.2345 21.4583 11.284 21.4987 11.3199C21.5391 11.3557 21.5913 11.3753 21.6453 11.375H21.875C22.3727 11.3748 22.8679 11.4457 23.3455 11.5855C23.3782 11.595 23.4125 11.5967 23.4459 11.5905C23.4793 11.5844 23.5108 11.5705 23.5379 11.5501C23.565 11.5297 23.587 11.5032 23.6021 11.4728C23.6172 11.4424 23.6251 11.4089 23.625 11.375V7.4375C23.625 6.62527 23.3023 5.84632 22.728 5.27199C22.1537 4.69766 21.3747 4.375 20.5625 4.375Z" fill="black"/>
</svg>
