<svg width="28" height="28" viewBox="0 0 28 28" fill="none" xmlns="http://www.w3.org/2000/svg">
<g id="_Linkedin" clip-path="url(#clip0_121_3140)">
<path id="Vector" d="M0 3.73555C0 2.83463 0.315324 2.09139 0.945946 1.50582C1.57657 0.920225 2.39641 0.627441 3.40541 0.627441C4.39641 0.627441 5.19819 0.915712 5.81081 1.49231C6.44143 2.0869 6.75676 2.86166 6.75676 3.81663C6.75676 4.6815 6.45046 5.4022 5.83784 5.97879C5.20722 6.57339 4.37838 6.87069 3.35135 6.87069H3.32432C2.33332 6.87069 1.53154 6.57339 0.918919 5.97879C0.306297 5.3842 0 4.63644 0 3.73555ZM0.351351 27.3842V9.33014H6.35135V27.3842H0.351351ZM9.67568 27.3842H15.6757V17.3031C15.6757 16.6725 15.7478 16.186 15.8919 15.8437C16.1441 15.231 16.527 14.713 17.0405 14.2896C17.5541 13.8662 18.1982 13.6545 18.973 13.6545C20.991 13.6545 22 15.0148 22 17.7355V27.3842H28V17.0328C28 14.3662 27.3694 12.3437 26.1081 10.9653C24.8468 9.5869 23.1802 8.89771 21.1081 8.89771C18.7838 8.89771 16.973 9.89771 15.6757 11.8977V11.9518H15.6486L15.6757 11.8977V9.33014H9.67568C9.7117 9.90671 9.72973 11.6995 9.72973 14.7085C9.72973 17.7175 9.7117 21.9427 9.67568 27.3842Z" fill="#A80E0E"/>
</g>
<defs>
<clipPath id="clip0_121_3140">
<rect width="28" height="28" fill="white"/>
</clipPath>
</defs>
</svg>
