<svg width="28" height="28" viewBox="0 0 28 28" fill="none" xmlns="http://www.w3.org/2000/svg">
<g id="_Telegram">
<path id="Vector" fill-rule="evenodd" clip-rule="evenodd" d="M2.37654 13.1753C9.61161 10.0231 14.4361 7.94498 16.8501 6.94093C23.7424 4.07418 25.1746 3.57619 26.108 3.55975C26.3134 3.55613 26.7724 3.60701 27.0698 3.84829C27.3208 4.05203 27.3899 4.32724 27.423 4.5204C27.456 4.71357 27.4972 5.1536 27.4645 5.49742C27.091 9.42179 25.4749 18.9452 24.6527 23.3406C24.3048 25.2004 23.6197 25.824 22.9566 25.885C21.5153 26.0176 20.4209 24.9325 19.025 24.0175C16.8406 22.5856 15.6066 21.6943 13.4863 20.2971C11.036 18.6823 12.6244 17.7948 14.0209 16.3444C14.3863 15.9648 20.7365 10.1889 20.8594 9.6649C20.8748 9.59937 20.8891 9.3551 20.744 9.22612C20.5988 9.09713 20.3847 9.14124 20.2301 9.17632C20.011 9.22604 16.5215 11.5325 9.76156 16.0956C8.77108 16.7758 7.87392 17.1072 7.07011 17.0898C6.18396 17.0706 4.47937 16.5888 3.21219 16.1768C1.65794 15.6716 0.422645 15.4045 0.530211 14.5465C0.586238 14.0996 1.20168 13.6425 2.37654 13.1753Z" fill="#A80E0E"/>
</g>
</svg>
