<svg width="28" height="28" viewBox="0 0 28 28" fill="none" xmlns="http://www.w3.org/2000/svg">
<g id="_Twitter">
<path id="Vector" d="M24.5665 8.37735C24.5773 8.62375 24.5773 8.85895 24.5773 9.10535C24.5881 16.5758 19.0995 25.1998 9.06242 25.1998C6.10206 25.1998 3.19573 24.315 0.699951 22.6574C1.13212 22.7134 1.56429 22.7358 1.99646 22.7358C4.44902 22.7358 6.83675 21.8846 8.77071 20.3054C6.43699 20.2606 4.38419 18.6814 3.67111 16.3742C4.49223 16.5422 5.33496 16.5086 6.13448 16.2734C3.59548 15.7582 1.76957 13.4398 1.75877 10.7406C1.75877 10.7182 1.75877 10.6958 1.75877 10.6734C2.51506 11.1102 3.36859 11.3566 4.23293 11.379C1.8452 9.72136 1.09971 6.41734 2.54747 3.83014C5.32416 7.36935 9.40816 9.50855 13.7947 9.74376C13.3517 7.78375 13.9567 5.72294 15.3721 4.33414C17.5653 2.19493 21.0227 2.30693 23.0971 4.58054C24.318 4.33414 25.4956 3.86374 26.5653 3.20293C26.1547 4.51334 25.3012 5.62214 24.1667 6.32774C25.2471 6.19334 26.306 5.89094 27.2999 5.44294C26.5653 6.58535 25.6361 7.57095 24.5665 8.37735Z" fill="#A80E0E"/>
</g>
</svg>
